# xmcd
#
# Track frame offsets:
# 150
# 44120
# 74100
# 108519
# 128637
# 168324
# 223577
# 244082
# 275997
# 309950
#
# Disc length: 4515 seconds
#
#
# Revision: 0
# Processed by: cddbd v1.5.1PL0 Copyright (c) Steve Scherf et al.
# Submitted via: FreeRIP 2.942 
#
DISCID=9e11a10a
DTITLE=IGOC TAKING HOLD OF THE FUTURE
DYEAR=1999
DGENRE=Gospel
TTITLE0=your name
TTITLE1=i delight in you
TTITLE2=i have a reason
TTITLE3=praise him praise him
TTITLE4=forever you will be
TTITLE5=holy medley
TTITLE6=warriors of righteousness
TTITLE7=psalm 3
TTITLE8=i have seen the downfall of satan
TTITLE9=the latter rain
EXTD=
EXTT0=
EXTT1=
EXTT2=
EXTT3=
EXTT4=
EXTT5=
EXTT6=
EXTT7=
EXTT8=
EXTT9=
PLAYORDER=
